<svg xmlns="http://www.w3.org/2000/svg" version="1.1" xmlns:xlink="http://www.w3.org/1999/xlink" xmlns:svgjs="http://svgjs.dev/svgjs" viewBox="0 0 1422 800"><circle r="11" cx="1248" cy="424" fill="hsl(116, 43%, 83%)" opacity="0.10"></circle><circle r="12" cx="1312" cy="558" fill="hsl(124, 43%, 83%)" opacity="0.99"></circle><circle r="25" cx="126" cy="682" fill="hsl(199, 43%, 83%)" opacity="0.46"></circle><circle r="15.5" cx="1381" cy="232" fill="hsl(136, 43%, 83%)" opacity="0.91"></circle><circle r="19" cx="236" cy="37" fill="hsl(170, 43%, 83%)" opacity="0.23"></circle><circle r="19" cx="440" cy="104" fill="hsl(163, 43%, 83%)" opacity="0.76"></circle><circle r="12.5" cx="1388" cy="329" fill="hsl(136, 43%, 83%)" opacity="0.46"></circle><circle r="15.5" cx="1369" cy="144" fill="hsl(130, 43%, 83%)" opacity="0.28"></circle><circle r="18" cx="597" cy="116" fill="hsl(153, 43%, 83%)" opacity="0.41"></circle><circle r="11.5" cx="1204" cy="207" fill="hsl(115, 43%, 83%)" opacity="0.28"></circle><circle r="26" cx="325" cy="431" fill="hsl(186, 43%, 83%)" opacity="0.55"></circle><circle r="19" cx="755" cy="583" fill="hsl(157, 43%, 83%)" opacity="0.42"></circle><circle r="25" cx="114" cy="417" fill="hsl(199, 43%, 83%)" opacity="0.11"></circle><circle r="16.5" cx="949" cy="242" fill="hsl(154, 43%, 83%)" opacity="0.34"></circle><circle r="25" cx="185" cy="756" fill="hsl(195, 43%, 83%)" opacity="0.65"></circle><circle r="12" cx="1286" cy="224" fill="hsl(118, 43%, 83%)" opacity="0.58"></circle><circle r="13.5" cx="1044" cy="616" fill="hsl(134, 43%, 83%)" opacity="0.51"></circle><circle r="19.5" cx="672" cy="433" fill="hsl(156, 43%, 83%)" opacity="0.35"></circle><circle r="21.5" cx="360" cy="118" fill="hsl(173, 43%, 83%)" opacity="0.95"></circle><circle r="17.5" cx="897" cy="605" fill="hsl(158, 43%, 83%)" opacity="0.88"></circle><circle r="11" cx="1153" cy="681" fill="hsl(119, 43%, 83%)" opacity="0.58"></circle><circle r="12" cx="1117" cy="309" fill="hsl(122, 43%, 83%)" opacity="0.30"></circle><circle r="9" cx="1279" cy="770" fill="hsl(118, 43%, 83%)" opacity="0.58"></circle><circle r="17" cx="627" cy="192" fill="hsl(157, 43%, 83%)" opacity="0.41"></circle><circle r="17" cx="818" cy="369" fill="hsl(159, 43%, 83%)" opacity="0.66"></circle><circle r="17.5" cx="727" cy="367" fill="hsl(156, 43%, 83%)" opacity="0.93"></circle><circle r="21.5" cx="40" cy="571" fill="hsl(202, 43%, 83%)" opacity="0.71"></circle><circle r="25" cx="186" cy="547" fill="hsl(195, 43%, 83%)" opacity="0.77"></circle><circle r="18" cx="803" cy="92" fill="hsl(167, 43%, 83%)" opacity="0.60"></circle><circle r="16.5" cx="836" cy="565" fill="hsl(160, 43%, 83%)" opacity="0.22"></circle></svg>